<?xml version="1.0" standalone="no"?>
<!DOCTYPE svg PUBLIC "-//W3C//DTD SVG 20010904//EN"
 "http://www.w3.org/TR/2001/REC-SVG-20010904/DTD/svg10.dtd">
<svg version="1.0" xmlns="http://www.w3.org/2000/svg"
 width="853.000000pt" height="566.000000pt" viewBox="0 0 853.000000 566.000000"
 preserveAspectRatio="xMidYMid meet">

<g transform="translate(0.000000,566.000000) scale(0.100000,-0.100000)"
fill="#000000" stroke="none">
<path d="M4271 4863 c-135 -151 -140 -158 -114 -161 44 -5 47 -18 4 -14 -62 6
-163 -53 -301 -175 l-44 -40 31 4 c38 6 77 -27 68 -58 -9 -28 1 -24 74 33 96
74 102 77 41 17 -31 -30 -80 -96 -110 -147 -53 -90 -55 -92 -64 -65 -12 37
-15 40 -26 23 -15 -24 -12 -130 3 -136 9 -3 12 -16 9 -35 -4 -30 -4 -30 33
-23 29 5 43 2 65 -15 l29 -21 302 403 c278 371 347 459 324 417 -5 -8 -140
-199 -300 -425 -160 -225 -294 -415 -297 -421 -8 -12 11 -89 35 -145 8 -20 32
-49 52 -65 l37 -28 61 65 c33 35 138 143 231 239 94 96 182 187 195 202 l24
27 -40 48 c-56 67 -83 113 -83 144 0 33 34 69 65 69 23 0 23 0 -6 -30 -23 -23
-29 -35 -24 -52 11 -37 48 -89 106 -148 30 -31 131 -134 224 -230 178 -183
247 -265 285 -339 22 -45 64 -223 74 -321 8 -77 1 -56 -34 105 -47 219 -55
231 -319 498 l-225 228 -35 -35 -35 -35 70 -73 c66 -69 232 -265 302 -355 37
-47 60 -130 138 -487 l47 -219 -21 -41 c-18 -34 -22 -58 -22 -138 l0 -98 125
0 125 0 0 -40 0 -40 374 0 375 0 3 28 3 27 143 0 142 0 0 55 c-1 68 -18 261
-24 267 -2 3 -53 8 -113 12 -99 7 -102 8 -35 10 l72 1 0 33 c0 36 -25 67 -53
67 -11 0 -17 8 -17 25 0 14 5 25 10 25 6 0 10 7 10 15 0 9 -9 15 -25 15 -23 0
-25 -4 -25 -40 l0 -40 -102 6 c-57 4 -105 9 -108 11 -3 3 -9 35 -15 71 -9 58
-13 67 -32 70 -18 3 -23 10 -23 33 0 24 -4 30 -17 27 -10 -2 -20 -14 -21 -27
-4 -23 -5 -23 -75 -16 -40 4 -100 11 -134 14 -62 6 -64 7 -98 56 -149 212
-157 226 -181 319 -13 50 -37 127 -54 171 -42 115 -73 234 -66 258 4 15 -3 31
-23 52 -15 16 -70 96 -121 178 -72 115 -97 147 -113 147 -18 0 -42 33 -119
164 -54 91 -98 171 -98 179 0 46 -106 76 -271 77 l-106 0 -142 -157z m663
-309 c-6 -22 91 -182 170 -279 48 -60 46 -58 -161 124 l-163 143 0 68 c0 37 3
95 7 129 l6 63 73 -114 c51 -79 72 -119 68 -134z m-259 -32 c-33 -7 -47 -24
-43 -54 4 -22 2 -25 -9 -17 -35 30 4 93 50 81 21 -6 21 -6 2 -10z m-818 -364
c-3 -8 -6 -5 -6 6 -1 11 2 17 5 13 3 -3 4 -12 1 -19z m1583 -605 c12 -21 24
-45 25 -55 2 -9 11 -28 20 -42 l17 -26 -41 0 c-33 0 -41 3 -41 19 0 10 -3 46
-6 80 -4 33 -4 61 -1 61 3 0 15 -17 27 -37z m160 -188 c0 -3 -7 -21 -15 -41
-27 -65 -45 -182 -45 -294 l0 -111 -97 3 -98 3 3 50 c7 110 51 357 69 388 5 8
183 10 183 2z m265 -15 c51 0 55 -9 64 -121 l8 -104 -95 -102 -94 -103 -68 0
-68 0 -7 59 c-11 99 11 251 51 346 l15 38 82 -7 c45 -3 96 -6 112 -6z m-526
-141 c-36 -184 -39 -192 -33 -100 5 75 39 219 49 209 3 -2 -5 -51 -16 -109z
m784 -76 c-13 -2 -33 -2 -45 0 -13 2 -3 4 22 4 25 0 35 -2 23 -4z m96 -69 c10
-9 -135 -3 -149 6 -10 7 12 8 65 3 44 -3 82 -7 84 -9z m60 -30 c8 -7 -164 -2
-194 6 -17 5 19 6 80 3 61 -3 112 -7 114 -9z m-1096 -30 c5 -28 -17 -44 -35
-26 -8 8 -8 18 0 37 14 30 28 26 35 -11z m1027 6 c62 -7 62 -7 15 -7 -27 -1
-77 3 -110 7 -54 6 -56 7 -15 7 25 1 74 -3 110 -7z m-52 -27 c-15 -2 -42 -2
-60 0 -18 2 -6 4 27 4 33 0 48 -2 33 -4z m9 -30 c-20 -2 -52 -2 -70 0 -17 2 0
4 38 4 39 0 53 -2 32 -4z"/>
<path d="M3806 4447 c-13 -13 -25 -28 -27 -33 -2 -5 -26 -25 -53 -44 l-48 -35
56 -3 c52 -3 59 0 111 39 58 44 69 71 36 89 -30 16 -50 12 -75 -13z"/>
<path d="M3532 4310 c-181 -5 -183 -5 -202 -30 -25 -33 -33 -80 -19 -119 15
-43 -3 -66 -27 -33 -8 12 -22 22 -29 22 -16 0 -39 -32 -50 -67 l-6 -23 163 1
c90 1 228 4 307 8 137 6 144 7 152 29 6 17 5 22 -7 22 -18 0 -44 58 -44 97 0
15 6 40 14 55 17 33 4 49 -38 46 -17 -1 -113 -5 -214 -8z"/>
<path d="M3840 4008 c-34 -46 -71 -156 -91 -268 -20 -108 -17 -404 4 -500 18
-81 65 -187 77 -173 4 4 38 115 76 245 37 130 70 235 72 233 2 -2 -24 -117
-57 -257 l-61 -253 104 -272 c58 -150 108 -279 113 -287 4 -8 8 101 8 242 0
272 3 299 57 542 20 92 32 175 35 260 7 158 -6 197 -89 258 -47 35 -57 49 -82
113 -47 121 -72 159 -106 159 -23 0 -36 -9 -60 -42z"/>
<path d="M2822 4030 c-439 -6 -405 3 -417 -103 -4 -34 -17 -96 -30 -137 -110
-355 -18 -896 220 -1294 80 -135 110 -166 169 -177 27 -5 51 -7 53 -5 3 2 -5
22 -16 45 -12 22 -21 43 -21 46 0 3 41 5 91 5 l91 0 48 -50 c44 -46 52 -50 94
-50 25 0 46 2 46 5 0 3 -9 24 -20 45 l-20 40 105 0 c58 0 105 -4 105 -8 0 -4
18 -27 40 -50 36 -37 46 -42 85 -42 25 0 45 2 45 5 0 3 -9 24 -20 45 l-20 40
92 0 92 0 41 -46 c36 -42 45 -47 94 -52 l53 -5 -21 41 c-12 23 -21 45 -21 49
0 4 39 7 88 5 l88 -3 24 -36 c27 -39 72 -63 119 -63 l30 0 -45 98 c-72 153
-159 359 -210 499 -33 90 -55 134 -74 150 -116 95 -149 511 -65 831 9 35 27
89 40 119 14 31 25 57 25 59 0 5 -434 2 -978 -6z m73 -926 c215 -3 399 -10
410 -14 11 -4 -115 -10 -280 -14 -317 -7 -395 -13 -360 -27 12 -4 -23 -8 -86
-8 l-107 -1 -4 35 c-5 40 -1 47 21 41 9 -3 192 -8 406 -12z m380 -143 l180 -6
-230 -8 c-389 -12 -533 -21 -495 -28 20 -4 -19 -7 -92 -8 -96 -1 -128 2 -128
12 0 6 -3 23 -7 35 l-6 24 299 -7 c164 -4 380 -10 479 -14z m-175 -127 c519
-10 545 -19 85 -29 -220 -5 -384 -12 -365 -16 25 -4 10 -7 -51 -8 -47 0 -113
-4 -146 -7 -58 -6 -60 -6 -67 19 -3 14 -9 33 -13 42 -6 16 2 17 103 12 60 -4
264 -10 454 -13z m120 -136 c504 -12 618 -26 230 -27 -277 -1 -615 -14 -560
-22 25 -3 -23 -7 -111 -7 -141 -2 -157 0 -162 16 -2 9 -8 25 -12 35 -9 21 -46
21 615 5z"/>
<path d="M5006 2709 c-92 -12 -181 -36 -230 -62 l-41 -21 30 -7 c17 -4 74 -7
127 -8 92 -1 99 0 147 31 28 17 86 41 129 54 l77 23 -85 -1 c-47 0 -116 -5
-154 -9z"/>
<path d="M5302 2671 c11 -17 7 -26 -28 -68 -33 -38 -48 -49 -77 -51 -44 -4
-59 -21 -55 -64 l3 -33 156 -3 157 -2 5 27 c3 16 8 38 12 51 6 18 4 21 -9 16
-30 -11 -16 14 27 51 49 43 92 63 167 81 50 11 37 12 -158 13 -208 1 -212 1
-200 -18z"/>
<path d="M5835 2658 c-114 -12 -227 -45 -282 -81 l-48 -32 184 -7 184 -7 59
30 c104 52 165 63 353 63 155 0 166 1 126 13 -104 30 -397 41 -576 21z"/>
<path d="M4696 2566 c-9 -19 -16 -39 -16 -45 0 -7 41 -11 125 -11 l125 0 17
38 c9 20 19 40 21 45 2 4 -55 7 -126 7 l-130 0 -16 -34z"/>
<path d="M5075 2564 c-28 -30 -34 -96 -12 -125 20 -26 58 -42 70 -30 7 7 7 11
1 11 -15 0 -34 45 -34 80 0 16 11 42 26 59 l26 31 -27 0 c-15 0 -36 -11 -50
-26z"/>
<path d="M6167 2583 c-9 -9 -9 -43 1 -43 4 0 7 11 7 25 0 14 0 25 -1 25 0 0
-4 -3 -7 -7z"/>
<path d="M6547 2565 c9 -39 9 -112 0 -147 -5 -19 -14 -28 -27 -28 -10 0 -22
-5 -25 -10 -3 -6 -16 -8 -29 -4 -12 3 -43 -2 -68 -11 -38 -12 -51 -13 -73 -3
-24 11 -29 10 -45 -10 -21 -25 -58 -29 -74 -7 -6 8 -25 19 -43 24 l-32 9 2
-36 c2 -34 -1 -37 -25 -40 -20 -2 -28 1 -28 12 0 23 -24 19 -58 -9 -32 -26
-58 -32 -64 -14 -5 15 -74 40 -125 46 -41 5 -43 7 -43 38 0 30 -3 33 -37 39
-21 3 -91 6 -155 6 -111 0 -118 -1 -118 -20 0 -20 -11 -26 -23 -14 -4 4 -34 8
-68 9 -44 2 -62 -1 -66 -11 -3 -9 -13 -12 -25 -8 -10 3 -26 0 -34 -7 -11 -9
-18 -9 -26 -1 -7 7 -45 9 -113 5 -83 -5 -108 -3 -135 11 -46 22 -276 24 -246
1 18 -14 16 -16 -30 -36 -130 -56 -396 -159 -411 -159 -9 0 -24 6 -32 14 -26
23 -106 5 -140 -31 -24 -26 -37 -31 -99 -37 -55 -6 -78 -4 -101 8 -53 28 -123
14 -176 -34 -16 -15 -52 -35 -79 -43 -48 -16 -49 -16 -93 10 l-44 26 -62 -25
c-48 -18 -70 -22 -97 -16 -113 25 -443 78 -487 78 -136 0 -713 -138 -713 -171
0 -6 124 -48 193 -64 15 -4 29 -10 32 -14 2 -4 -61 4 -140 18 l-144 24 -45
-36 c-25 -20 -67 -53 -93 -73 -45 -34 -44 -33 13 23 l61 60 -51 -4 c-28 -3
-127 -13 -221 -24 -93 -11 -251 -24 -350 -30 l-179 -10 -162 -62 c-90 -34
-161 -63 -159 -65 1 -2 80 13 174 34 l170 36 143 -38 143 -39 -230 -5 -230 -5
-215 -77 c-118 -41 -226 -80 -240 -86 -18 -8 1064 -11 3615 -11 l3640 -1 -195
128 c-107 70 -218 142 -247 160 -45 29 -70 36 -193 54 -77 12 -138 23 -136 25
2 3 64 13 136 24 l133 19 186 -96 c102 -53 182 -92 176 -86 -25 24 -353 246
-375 253 -14 4 -97 10 -185 13 -221 9 -212 6 -262 81 l-42 63 -43 -5 -43 -4
-57 78 c-55 77 -58 79 -128 102 -69 22 -72 24 -66 49 22 92 19 162 -9 198 -14
18 -15 17 -8 -11z m-987 -365 c52 -35 49 -37 -12 -12 -38 17 -48 17 -93 6 -74
-20 -78 -16 -10 10 33 13 62 24 65 25 3 0 25 -13 50 -29z m826 -97 c-2 -2 -48
1 -102 6 l-99 10 -70 -45 -70 -46 71 70 70 70 102 -31 c56 -17 100 -32 98 -34z
m-1521 2 c77 -24 131 -44 120 -45 -11 0 -79 5 -151 12 l-130 11 -79 -54 c-118
-80 -119 -79 -12 25 55 53 102 96 105 96 4 0 70 -20 147 -45z m-1803 -46 c26
-17 48 -33 48 -35 0 -5 -43 12 -80 31 -23 12 -35 13 -53 5 -22 -11 -21 -11 2
9 13 12 26 21 29 21 3 0 27 -14 54 -31z m1139 -9 c43 -19 30 -26 -21 -11 -18
6 -41 0 -85 -22 -33 -16 -55 -25 -50 -19 18 17 98 72 105 72 4 0 27 -9 51 -20z
m-669 -191 c60 -39 57 -48 -6 -17 -41 19 -51 21 -79 10 l-32 -12 30 25 c17 13
32 24 34 25 2 0 26 -14 53 -31z"/>
<path d="M6284 2549 c-3 -6 -1 -16 5 -22 8 -8 11 -5 11 11 0 24 -5 28 -16 11z"/>
<path d="M6417 2535 c-9 -8 -17 -19 -19 -24 -1 -6 -77 -19 -168 -31 -90 -12
-166 -23 -168 -25 -2 -2 -2 -14 0 -27 l3 -24 164 20 c131 15 168 17 183 7 26
-16 30 -10 17 27 -8 24 -7 37 6 61 16 33 7 41 -18 16z"/>
<path d="M6095 2519 c-4 -6 -5 -12 -2 -15 2 -3 7 2 10 11 7 17 1 20 -8 4z"/>
<path d="M5497 2513 c-3 -5 -8 -22 -11 -39 -7 -31 -6 -31 40 -38 26 -3 98 -6
160 -6 101 0 113 2 119 19 3 10 14 26 25 36 11 10 20 22 20 27 0 10 -347 11
-353 1z"/>
<path d="M5925 2495 c-19 -18 -25 -35 -25 -70 0 -35 6 -52 25 -70 24 -25 55
-33 55 -16 0 5 -6 14 -14 20 -31 26 -27 77 12 154 9 18 -31 5 -53 -18z"/>
<path d="M4684 2468 c3 -18 10 -36 14 -39 4 -4 64 -11 134 -15 l128 -7 -11 34
c-7 19 -14 37 -18 40 -3 4 -62 9 -130 13 l-124 7 7 -33z"/>
<path d="M1939 1123 c-15 -2 -51 -18 -80 -36 -173 -104 -133 -403 62 -461 56
-17 98 -20 147 -10 27 5 31 11 37 48 4 22 9 49 11 58 4 14 1 15 -30 6 -102
-31 -171 78 -97 153 25 25 37 29 81 29 l52 0 -7 103 c-4 56 -9 104 -12 107 -6
6 -132 9 -164 3z"/>
<path d="M2286 1118 c-57 -16 -112 -76 -132 -144 -63 -218 106 -426 281 -345
90 42 139 132 139 256 1 70 -3 87 -29 133 -49 89 -153 130 -259 100z m106
-225 c25 -22 24 -89 -2 -131 -11 -19 -26 -32 -33 -30 -23 8 -48 71 -43 111 7
64 40 85 78 50z"/>
<path d="M3987 1115 c-48 -17 -82 -48 -110 -100 -18 -33 -22 -57 -22 -135 0
-84 3 -101 27 -146 54 -102 139 -142 241 -113 46 13 102 60 127 108 41 82 44
215 6 289 -47 91 -166 134 -269 97z m113 -220 c33 -40 11 -155 -31 -163 -39
-7 -66 129 -33 162 19 20 48 20 64 1z"/>
<path d="M4400 1125 c-8 -2 -32 -7 -54 -10 l-38 -6 6 -187 c4 -103 9 -213 12
-244 l6 -58 93 0 94 0 3 43 3 42 38 -57 c43 -63 40 -62 127 -18 29 15 39 25
33 33 -5 7 -26 33 -46 59 l-38 48 37 32 c105 93 80 249 -49 303 -35 14 -194
29 -227 20z m164 -221 c23 -9 21 -61 -3 -74 -30 -15 -31 -14 -31 35 0 45 5 50
34 39z"/>
<path d="M4938 1117 c-72 -21 -120 -58 -152 -118 -58 -105 -34 -260 48 -322
69 -53 172 -76 280 -63 63 8 60 2 70 149 l6 77 -74 0 -74 0 5 -60 c3 -33 2
-60 -3 -60 -23 0 -74 42 -80 66 -17 67 44 124 133 124 l53 0 -6 98 c-4 53 -10
101 -15 106 -13 15 -141 17 -191 3z"/>
<path d="M6417 1120 c-27 -5 -51 -10 -53 -13 -2 -2 0 -89 6 -193 5 -104 10
-213 10 -241 l0 -53 99 0 100 0 3 42 3 42 38 -57 c37 -57 38 -57 65 -43 15 7
44 21 66 30 l38 16 -39 47 c-58 70 -58 70 -23 99 45 38 63 81 63 145 0 78 -24
117 -94 152 -46 23 -73 29 -145 32 -49 2 -111 0 -137 -5z m211 -222 c17 -17
15 -38 -5 -60 -28 -31 -43 -22 -43 27 0 37 3 45 18 45 10 0 23 -5 30 -12z"/>
<path d="M904 1023 c3 -49 9 -159 12 -246 l6 -158 146 3 146 3 6 25 c22 84 23
80 -6 70 -14 -6 -41 -10 -60 -10 -31 0 -34 2 -34 31 0 31 0 32 44 27 l45 -5
10 49 c6 27 11 51 11 54 0 2 -25 1 -55 -2 l-55 -7 0 28 c0 28 0 28 54 22 l53
-5 7 51 c3 29 6 76 6 105 l0 52 -171 0 -171 0 6 -87z"/>
<path d="M1291 1048 c17 -35 52 -98 76 -141 l45 -77 -60 -103 -60 -102 60 -3
c77 -4 83 -1 108 48 11 22 24 40 28 40 4 0 18 -20 31 -45 l24 -45 78 0 79 0
-57 114 -56 113 50 84 c27 46 62 105 76 132 l26 47 -91 0 -90 0 -15 -40 c-9
-22 -19 -40 -23 -40 -4 0 -12 18 -19 40 l-12 40 -115 0 -114 0 31 -62z"/>
<path d="M2594 1095 c9 -24 102 -320 127 -403 l21 -73 61 3 c61 3 61 3 71 38
5 19 38 124 73 234 35 109 63 202 63 207 0 5 -27 9 -59 9 -59 0 -59 0 -66 -32
-3 -18 -11 -58 -18 -88 l-11 -55 -13 60 c-7 33 -12 72 -13 88 l0 27 -121 0
c-105 0 -120 -2 -115 -15z"/>
<path d="M3116 1098 c-2 -7 -12 -53 -21 -103 -9 -49 -32 -154 -50 -232 l-32
-143 53 0 c47 0 54 2 54 20 0 11 4 20 9 20 5 0 13 -9 16 -20 8 -25 20 -25 57
1 l29 21 6 -21 c5 -20 12 -21 100 -21 76 0 94 3 90 13 -4 11 -52 226 -102 455
-5 21 -10 22 -106 22 -71 0 -101 -4 -103 -12z m83 -323 c7 -19 9 -39 6 -45 -7
-11 -55 -14 -55 -4 0 16 24 84 30 84 3 0 12 -16 19 -35z"/>
<path d="M3430 1073 c0 -21 3 -68 6 -105 l7 -67 42 6 c38 5 43 3 48 -18 4 -13
7 -55 7 -94 0 -38 3 -94 6 -122 l7 -53 83 0 84 0 0 53 c0 30 3 96 7 147 l6 92
48 -5 48 -6 3 105 3 104 -202 0 -203 0 0 -37z"/>
<path d="M5204 1068 c3 -24 8 -134 12 -245 l7 -203 147 0 148 0 5 29 c3 16 9
41 13 56 6 25 5 26 -15 15 -12 -6 -39 -10 -59 -8 -33 3 -37 7 -40 32 -4 29 -3
29 42 24 26 -3 48 -3 50 1 2 3 7 27 10 53 l7 47 -56 -6 c-56 -6 -57 -5 -53 18
3 22 7 24 55 23 60 -2 58 -6 66 134 l4 72 -174 0 -175 0 6 -42z"/>
<path d="M5574 1048 c3 -35 8 -117 11 -183 3 -66 8 -148 11 -182 l6 -63 53 0
c62 0 65 4 65 96 0 35 2 64 5 64 3 0 38 -26 78 -58 76 -61 132 -102 140 -102
2 0 7 69 11 153 3 83 9 194 12 245 l6 92 -66 0 -66 0 0 -52 0 -52 -53 52 -53
52 -83 0 -83 0 6 -62z"/>
<path d="M5994 1068 c3 -24 8 -134 12 -245 l7 -203 147 0 148 0 5 29 c3 16 9
41 13 56 6 25 5 26 -15 15 -12 -6 -39 -10 -59 -8 -33 3 -37 7 -40 32 -4 29 -3
29 42 24 26 -3 48 -3 50 1 2 3 7 27 10 53 l7 47 -56 -6 c-56 -6 -57 -5 -53 18
3 22 7 24 55 23 60 -2 58 -6 66 134 l4 72 -174 0 -175 0 6 -42z"/>
<path d="M6895 1088 c-2 -13 -10 -52 -16 -88 -6 -36 -26 -132 -45 -213 -19
-82 -34 -152 -34 -158 0 -5 22 -9 49 -9 42 0 50 3 55 23 l7 22 11 -22 c13 -27
25 -28 52 -8 25 19 46 19 46 0 0 -12 17 -15 96 -15 95 0 96 0 90 23 -3 12 -26
116 -52 232 -25 116 -47 216 -50 223 -2 8 -32 12 -103 12 -96 0 -101 -1 -106
-22z m94 -350 c1 -13 -7 -18 -29 -18 -16 0 -30 1 -30 3 0 2 8 25 17 52 l16 49
13 -34 c7 -19 13 -43 13 -52z"/>
<path d="M7223 1013 c4 -54 10 -164 13 -245 l7 -148 147 0 147 0 7 39 c3 22 9
46 12 55 5 14 2 15 -21 6 -14 -5 -44 -10 -66 -10 -36 0 -39 2 -35 23 3 12 8
102 11 200 l7 177 -118 0 -117 0 6 -97z"/>
</g>
</svg>
